<svg width="16" height="24" viewBox="0 0 16 24" fill="none" xmlns="http://www.w3.org/2000/svg">
<path d="M15.2682 10.65C15.2682 9.1125 14.0307 7.875 12.4932 7.875H6.1182C5.7057 7.875 5.3307 8.025 5.0682 8.325L4.8057 8.5875L4.5432 8.325C4.2807 8.0625 3.8682 7.875 3.4932 7.875H2.7807C1.6932 7.875 0.755702 8.7 0.643202 9.825L0.00570234 15.75C-0.0317977 16.1625 0.118202 16.575 0.380702 16.9125C0.643202 17.2125 1.0182 17.4 1.4307 17.4L1.7682 21.6375C1.8807 22.8375 2.8932 23.7375 4.0557 23.7375H5.4432C6.6432 23.7375 7.6182 22.8375 7.7307 21.6375L8.5182 13.4625H12.4557C13.9932 13.4625 15.2682 12.225 15.2682 10.65ZM7.7682 11.775C7.3182 11.775 6.9807 12.1125 6.9432 12.525L6.0807 21.4875C6.0432 21.7875 5.7807 22.05 5.4807 22.05H4.0932C3.7557 22.05 3.4932 21.7875 3.4932 21.4875L3.0807 16.4625C3.0432 16.0125 2.6682 15.675 2.2557 15.675H1.7307L2.2932 9.9375C2.3307 9.675 2.5182 9.4875 2.7432 9.4875H3.3807L4.1682 10.275C4.4682 10.575 5.0307 10.575 5.3682 10.275L6.1557 9.4875H12.4557C13.0557 9.4875 13.5432 9.975 13.5432 10.6125C13.5432 11.2125 13.0557 11.7 12.4557 11.7H7.7682V11.775Z" fill="#637381"/>
<path d="M13.3195 18.6H12.2695C12.0445 18.6 11.8945 18.45 11.8945 18.225C11.8945 18.0375 12.082 17.85 12.2695 17.85H14.557C15.007 17.85 15.382 17.475 15.382 17.025C15.382 16.575 15.007 16.2 14.557 16.2H13.9945V16.0125C13.9945 15.5625 13.6195 15.1875 13.1695 15.1875C12.7195 15.1875 12.3445 15.5625 12.3445 16.0125V16.2H12.307C11.182 16.2 10.2445 17.1375 10.2445 18.2625C10.2445 19.3875 11.182 20.325 12.307 20.325H13.3195C13.5445 20.325 13.6945 20.475 13.6945 20.7C13.6945 20.8875 13.507 21.075 13.3195 21.075H11.032C10.582 21.075 10.207 21.45 10.207 21.9C10.207 22.35 10.582 22.725 11.032 22.725H12.2695V22.9125C12.2695 23.3625 12.6445 23.7375 13.0945 23.7375C13.5445 23.7375 13.9195 23.3625 13.9195 22.9125V22.6125C14.7445 22.35 15.307 21.5625 15.307 20.6625C15.382 19.5 14.4445 18.6 13.3195 18.6Z" fill="#637381"/>
<path d="M4.99297 7.16172C6.90547 7.16172 8.44297 5.62422 8.44297 3.71172C8.44297 1.79922 6.90547 0.261719 4.99297 0.261719C3.08047 0.261719 1.54297 1.79922 1.54297 3.71172C1.54297 5.62422 3.08047 7.16172 4.99297 7.16172ZM4.99297 1.94922C5.96797 1.94922 6.75547 2.73672 6.75547 3.71172C6.75547 4.68672 5.96797 5.47422 4.99297 5.47422C4.01797 5.47422 3.23047 4.68672 3.23047 3.71172C3.23047 2.73672 4.01797 1.94922 4.99297 1.94922Z" fill="#637381"/>
</svg>
