<svg width="125" height="125" viewBox="0 0 125 125" fill="none" xmlns="http://www.w3.org/2000/svg">
<rect width="125" height="125" fill="#121111"/>
<path d="M-1583 -200C-1583 -201.105 -1582.1 -202 -1581 -202H453C454.105 -202 455 -201.105 455 -200V724C455 725.105 454.105 726 453 726H-1581C-1582.1 726 -1583 725.105 -1583 724V-200Z" fill="white" fill-opacity="0.3"/>
<rect width="586" height="328" transform="translate(-231 -102)" fill="white"/>
<path d="M0 27.0833C0 12.1256 12.1256 0 27.0833 0H97.9167C112.874 0 125 12.1256 125 27.0833V97.9167C125 112.874 112.874 125 97.9167 125H27.0833C12.1256 125 0 112.874 0 97.9167V27.0833Z" fill="#0059FF"/>
<path d="M60.9245 30.8595C61.1555 29.8461 62.4346 29.6926 62.9533 30.5934L97.8403 91.1866C98.5412 92.404 97.4821 93.7888 96.1522 93.3362C88.9524 90.8862 72.6368 83.826 65.0186 68.3075C57.2367 52.4554 59.5535 36.8729 60.9245 30.8595Z" fill="white"/>
<path d="M53.6421 43.7456C53.6879 43.2916 52.9568 43.0403 52.7277 43.4349L38.5338 67.8896C38.3076 68.2793 38.8315 68.7385 39.1918 68.468C42.3316 66.1118 48.9864 61.6247 54.9976 60.8916C53.1076 53.3314 53.3091 47.0443 53.6421 43.7456Z" fill="white"/>
<path d="M27.4661 94C26.4608 93.9987 25.7219 93.0931 25.9939 92.1253C28.9895 81.4648 42.7721 70.3113 56.4005 66.1025C62.6538 82.0333 73.5523 89.6905 78.7435 92.575C79.3264 92.899 79.0715 94 78.4046 94H27.4661Z" fill="white"/>
</svg>
